<?xml version="1.0" encoding="UTF-8"?><svg id="Layer_1" xmlns="http://www.w3.org/2000/svg" xmlns:xlink="http://www.w3.org/1999/xlink" viewBox="0 0 222.08 81.18"><defs><style>.cls-1{fill:url(#linear-gradient-2);}.cls-2{fill:#fff;}.cls-3{fill:url(#linear-gradient-4);}.cls-4{fill:url(#linear-gradient-3);}.cls-5{fill:url(#linear-gradient-5);}.cls-6{fill:url(#linear-gradient-6);}.cls-7{fill:url(#linear-gradient);}</style><linearGradient id="linear-gradient" x1="0" y1="29.14" x2="41.87" y2="29.14" gradientUnits="userSpaceOnUse"><stop offset="0" stop-color="#227db2"/><stop offset=".91" stop-color="#207cb2"/><stop offset="1" stop-color="#1f7cb2"/></linearGradient><linearGradient id="linear-gradient-2" x1="47.73" y1="36.52" x2="59.15" y2="36.52" gradientUnits="userSpaceOnUse"><stop offset="0" stop-color="#227db2"/><stop offset="1" stop-color="#1f7cb2"/></linearGradient><linearGradient id="linear-gradient-3" x1="46.51" y1="7.01" x2="60.47" y2="7.01" xlink:href="#linear-gradient-2"/><linearGradient id="linear-gradient-4" x1="66.83" y1="64.72" x2="142.17" y2="-10.62" gradientUnits="userSpaceOnUse"><stop offset=".23" stop-color="#1e86ab"/><stop offset=".59" stop-color="#2da68e"/><stop offset=".8" stop-color="#34b383"/></linearGradient><linearGradient id="linear-gradient-5" x1="104.53" y1="77.25" x2="183.01" y2="-1.23" gradientUnits="userSpaceOnUse"><stop offset="0" stop-color="#227db2"/><stop offset=".19" stop-color="#2786a9"/><stop offset=".52" stop-color="#36a192"/><stop offset=".7" stop-color="#40b383"/></linearGradient><linearGradient id="linear-gradient-6" x1="181.1" y1="36.52" x2="222.03" y2="36.52" gradientUnits="userSpaceOnUse"><stop offset="0" stop-color="#34b383"/><stop offset=".06" stop-color="#37b383"/><stop offset=".31" stop-color="#3eb383"/><stop offset="1" stop-color="#40b383"/></linearGradient></defs><path class="cls-7" d="M33.99,27.52c-4-2.09-5.17-2.27-9.57-3.7-3.98-1.19-6.6-2.28-7.87-3.27-2.27-1.67-2.65-4.66-.39-6.42,1.01-.8,2.44-1.21,4.3-1.21,4.8,0,7.34,2.15,9.38,6.31l10.47-6.15c-1.97-3.99-4.65-7.04-8.07-9.15C25.19-.52,14.06-.42,7.64,5.3,2.31,9.37.87,17.91,3.53,23.98c1.55,3.75,5.27,6.23,8.72,7.85,1.71.78,3.69,1.48,5.97,2.1,4.34,1.2,7.3,2.25,8.88,3.15,1.58.91,2.37,2.17,2.37,3.77,0,2.96-2.45,4.44-7.37,4.44-5.43,0-9.22-2.52-11.4-7.55L0,43.97c1.55,4.16,4.17,7.43,7.87,9.85,11.59,7.39,34.33,3.94,33.99-13.11.08-3.83-1.43-7.58-3.68-10.16-.96-1.06-2.36-2.07-4.19-3.03Z"/><rect class="cls-1" x="47.73" y="17.06" width="11.41" height="38.91"/><path class="cls-4" d="M48.57,2.07c-2.74,2.62-2.74,7.26,0,9.88,4.33,4.45,11.95,1.21,11.9-4.94.04-6.15-7.57-9.4-11.9-4.94Z"/><path class="cls-3" d="M96.5,21.03c-2.71-3.37-6.51-5.06-11.41-5.06-10.76-.27-19.45,9.18-19.23,19.76-.22,10.58,8.46,20.03,19.23,19.76,4.9,0,8.7-1.68,11.41-5.06-.01,3.63.4,7.32-2.34,9.77-1.56,1.43-3.73,2.14-6.49,2.14-4.17,0-7.14-1.63-8.91-4.9l-10.01,5.76c5.29,10.77,23.94,12.29,33.15,4.7,4.02-3.14,6.02-7.77,6.02-13.89V17.06h-11.41v3.97ZM93.65,42.65c-1.76,1.66-4,2.48-6.74,2.48-5.32.08-9.47-3.63-9.38-9.03-.09-5.39,4.06-9.1,9.38-9.02,5.32-.08,9.47,3.64,9.38,9.02,0,2.7-.88,4.88-2.64,6.54Z"/><path class="cls-5" d="M159.52,15.97c-5.14,0-8.9,1.72-11.28,5.14-2.29-3.42-5.68-5.14-10.19-5.14-4.83,0-8.3,1.56-10.43,4.67v-3.58h-11.41v38.91h11.41v-21.94c-.02-4.07,1.78-7.3,5.94-7.31,3.77-.02,5.49,2.73,5.48,6.38v22.88h11.93v-21.94c-.01-4.07,1.78-7.3,5.94-7.31,3.77-.02,5.48,2.73,5.48,6.38v22.88h11.93v-23.88c.12-9.19-5.54-16.19-14.78-16.11Z"/><path class="cls-6" d="M210.62,17.06v3.66c-2.69-3.16-6.46-4.75-11.33-4.75-10.55-.15-18.47,10.06-18.18,20.54-.29,10.48,7.63,20.69,18.18,20.54,4.87,0,8.65-1.58,11.33-4.74v3.65h11.41V17.06h-11.41ZM207.85,43.82c-1.71,1.71-3.93,2.56-6.67,2.56-5.55.05-9.32-3.88-9.23-9.49-.09-5.6,3.68-9.54,9.23-9.49,5.55-.05,9.32,3.89,9.22,9.49,0,2.91-.85,5.21-2.56,6.93Z"/><path class="cls-2" d="M131.94,64.76h-5.5v16.07h-4.35v-16.07h-5.47v-3.61h15.32v3.61Z"/><path class="cls-2" d="M138.59,81.18c-2.29,0-4.1-.66-5.41-1.97-1.31-1.31-1.97-3.1-1.97-5.35s.68-4.14,2.04-5.46,3.2-1.97,5.52-1.97,4.08.66,5.38,1.97c1.3,1.31,1.95,3.05,1.95,5.21,0,2.33-.67,4.18-2.01,5.53-1.34,1.35-3.17,2.03-5.5,2.03ZM138.7,69.76c-1,0-1.78.35-2.34,1.06-.56.71-.83,1.7-.83,2.99,0,2.7,1.07,4.05,3.2,4.05s3.05-1.39,3.05-4.16c0-2.63-1.03-3.94-3.08-3.94Z"/><path class="cls-2" d="M155.81,81.18c-2.29,0-4.1-.66-5.41-1.97-1.31-1.31-1.97-3.1-1.97-5.35s.68-4.14,2.04-5.46,3.2-1.97,5.52-1.97,4.08.66,5.38,1.97c1.3,1.31,1.95,3.05,1.95,5.21,0,2.33-.67,4.18-2.01,5.53-1.34,1.35-3.17,2.03-5.5,2.03ZM155.91,69.76c-1,0-1.78.35-2.34,1.06-.56.71-.83,1.7-.83,2.99,0,2.7,1.07,4.05,3.2,4.05s3.05-1.39,3.05-4.16c0-2.63-1.03-3.94-3.08-3.94Z"/><path class="cls-2" d="M170.71,80.84h-4.25v-20.81h4.25v20.81Z"/><path class="cls-2" d="M178.97,79.2h-.05v1.63h-4.25v-20.81h4.25v8.87h.05c1.05-1.64,2.54-2.46,4.48-2.46,1.77,0,3.14.62,4.1,1.87.96,1.24,1.44,2.95,1.44,5.11,0,2.34-.56,4.22-1.68,5.64s-2.62,2.13-4.49,2.13c-1.69,0-2.98-.66-3.84-1.98ZM178.85,73.27v1.44c0,.91.26,1.66.77,2.25s1.17.89,1.96.89c.97,0,1.72-.38,2.25-1.15.53-.76.8-1.85.8-3.25,0-1.16-.24-2.07-.73-2.72-.49-.65-1.19-.98-2.09-.98-.85,0-1.56.33-2.12.97-.56.65-.84,1.5-.84,2.54Z"/><path class="cls-2" d="M198.69,81.18c-2.29,0-4.1-.66-5.41-1.97-1.31-1.31-1.97-3.1-1.97-5.35s.68-4.14,2.04-5.46,3.2-1.97,5.52-1.97,4.08.66,5.38,1.97c1.3,1.31,1.95,3.05,1.95,5.21,0,2.33-.67,4.18-2.01,5.53-1.34,1.35-3.17,2.03-5.5,2.03ZM198.79,69.76c-1,0-1.78.35-2.34,1.06-.56.71-.83,1.7-.83,2.99,0,2.7,1.07,4.05,3.2,4.05s3.05-1.39,3.05-4.16c0-2.63-1.03-3.94-3.08-3.94Z"/><path class="cls-2" d="M222.08,66.78l-4.54,6.81,4.52,7.25h-4.89l-1.99-3.79c-.16-.3-.35-.73-.58-1.28h-.05c-.13.38-.32.8-.55,1.24l-2,3.83h-4.88l4.65-7-4.37-7.05h4.92l1.96,3.94c.26.52.44.96.55,1.32h.05c.14-.43.34-.88.58-1.34l2-3.91h4.62Z"/></svg>