<?xml version="1.0" encoding="UTF-8"?><svg id="Layer_1" xmlns="http://www.w3.org/2000/svg" xmlns:xlink="http://www.w3.org/1999/xlink" viewBox="0 0 220 80"><defs><style>.cls-1{fill:#fff;}.cls-2{fill:url(#linear-gradient);}</style><linearGradient id="linear-gradient" x1="57.01" y1="87" x2="161.05" y2="-17.04" gradientUnits="userSpaceOnUse"><stop offset=".21" stop-color="#1f7cb2"/><stop offset=".81" stop-color="#32b185"/><stop offset=".83" stop-color="#33b384"/></linearGradient></defs><path id="Sigma" class="cls-2" d="M208.69,16.88v3.62c-2.66-3.12-6.41-4.7-11.23-4.7-10.46-.14-18.3,9.95-18.02,20.32-.29,10.36,7.56,20.46,18.02,20.31,4.83,0,8.57-1.56,11.23-4.69v3.61h11.31V16.88h-11.31ZM205.95,43.34c-1.69,1.69-3.89,2.53-6.61,2.53-5.5.04-9.23-3.84-9.14-9.39-.09-5.54,3.65-9.44,9.14-9.38,5.5-.05,9.23,3.84,9.14,9.38,0,2.88-.84,5.16-2.53,6.85ZM41.48,40.26c.33,16.86-22.2,20.27-33.68,12.97-3.67-2.39-6.26-5.63-7.8-9.74l10.6-6.16c2.15,4.98,5.91,7.47,11.29,7.47,4.87,0,7.3-1.46,7.3-4.39,0-1.58-.78-2.83-2.34-3.73-1.56-.9-4.49-1.93-8.79-3.12-2.26-.61-4.23-1.31-5.92-2.08-3.41-1.6-7.1-4.06-8.64-7.77C.86,17.71,2.29,9.27,7.57,5.24,13.93-.41,24.96-.51,31.95,3.89c3.38,2.08,6.05,5.09,8,9.05l-10.37,6.08c-2.02-4.12-4.55-6.25-9.3-6.24-1.84,0-3.27.4-4.26,1.19-2.24,1.73-1.86,4.7.38,6.35,1.26.98,3.85,2.06,7.8,3.23,4.36,1.41,5.52,1.6,9.48,3.66,1.82.95,3.2,1.95,4.15,3,2.23,2.55,3.73,6.26,3.65,10.04ZM58.61,16.88v38.48h-11.31V16.88h11.31ZM59.92,6.93c.04,6.08-7.5,9.29-11.79,4.89-2.71-2.59-2.72-7.18,0-9.77,4.29-4.41,11.83-1.19,11.79,4.88ZM95.61,16.88v3.93c-2.68-3.33-6.45-5-11.31-5-10.66-.26-19.27,9.08-19.05,19.55-.22,10.47,8.38,19.81,19.05,19.55,4.86,0,8.63-1.66,11.31-5,0,3.58.4,7.24-2.32,9.66-1.55,1.41-3.7,2.11-6.43,2.11-4.13,0-7.07-1.61-8.83-4.85l-9.92,5.7c5.23,10.65,23.72,12.15,32.84,4.65,3.98-3.1,5.96-7.69,5.96-13.74V16.88h-11.31ZM92.8,42.18c-1.74,1.64-3.97,2.46-6.68,2.46-5.27.08-9.39-3.59-9.3-8.93-.09-5.33,4.03-9,9.3-8.92,5.27-.08,9.38,3.6,9.29,8.92,0,2.68-.87,4.83-2.61,6.47ZM172.71,31.73v23.62h-11.82v-22.62c0-3.61-1.69-6.33-5.43-6.3-4.12.01-5.9,3.2-5.88,7.23v21.7h-11.82v-22.62c.01-3.61-1.69-6.33-5.43-6.3-4.11.01-5.9,3.2-5.88,7.23v21.7h-11.31V16.88h11.31v3.54c2.1-3.08,5.55-4.62,10.33-4.62,4.47,0,7.84,1.7,10.1,5.08,2.36-3.38,6.09-5.08,11.18-5.08,9.16-.08,14.77,6.85,14.65,15.94Z"/><g id="Toolbox_-W"><path class="cls-1" d="M130.38,63.71h-5.47v15.95h-4.33v-15.95h-5.44v-3.58h15.24v3.58ZM142.52,67.33c1.29,1.3,1.94,3.03,1.94,5.17,0,2.32-.67,4.15-2,5.49-1.33,1.34-3.16,2.02-5.47,2.02s-4.07-.65-5.38-1.95-1.96-3.07-1.96-5.3.68-4.11,2.03-5.41c1.35-1.3,3.18-1.95,5.49-1.95s4.05.65,5.35,1.95ZM140.16,72.58c0-2.61-1.02-3.91-3.06-3.91-1,0-1.77.35-2.33,1.05s-.83,1.69-.83,2.97c0,2.68,1.06,4.02,3.18,4.02s3.03-1.38,3.03-4.13ZM159.64,67.33c1.29,1.3,1.94,3.03,1.94,5.17,0,2.32-.67,4.15-2,5.49-1.33,1.34-3.16,2.02-5.47,2.02s-4.07-.65-5.38-1.95-1.96-3.07-1.96-5.3.68-4.11,2.03-5.41c1.35-1.3,3.18-1.95,5.49-1.95s4.05.65,5.35,1.95ZM157.27,72.58c0-2.61-1.02-3.91-3.06-3.91-1,0-1.77.35-2.33,1.05s-.83,1.69-.83,2.97c0,2.68,1.06,4.02,3.18,4.02s3.03-1.38,3.03-4.13ZM164.7,79.66h4.22v-20.65h-4.22v20.65ZM185.66,67.22c.95,1.23,1.43,2.92,1.43,5.07,0,2.32-.56,4.19-1.67,5.6s-2.6,2.11-4.46,2.11c-1.68,0-2.96-.65-3.82-1.96h-.05v1.62h-4.22v-20.65h4.22v8.8h.05c1.04-1.63,2.53-2.44,4.45-2.44,1.76,0,3.12.62,4.08,1.85ZM182.76,72.35c0-1.15-.24-2.05-.73-2.7-.49-.65-1.18-.97-2.08-.97-.85,0-1.55.32-2.1.97-.56.64-.84,1.48-.84,2.52v1.43c0,.9.25,1.64.76,2.23.51.59,1.16.89,1.95.89.96,0,1.71-.38,2.24-1.14s.8-1.83.8-3.22ZM202.27,67.33c1.29,1.3,1.94,3.03,1.94,5.17,0,2.32-.67,4.15-2,5.49-1.33,1.34-3.16,2.02-5.47,2.02s-4.07-.65-5.38-1.95-1.96-3.07-1.96-5.3.68-4.11,2.03-5.41c1.35-1.3,3.18-1.95,5.49-1.95s4.05.65,5.35,1.95ZM199.9,72.58c0-2.61-1.02-3.91-3.06-3.91-1,0-1.77.35-2.33,1.05s-.83,1.69-.83,2.97c0,2.68,1.06,4.02,3.18,4.02s3.03-1.38,3.03-4.13ZM220,65.71h-4.6l-1.99,3.88c-.24.46-.43.91-.57,1.33h-.05c-.11-.35-.29-.79-.55-1.31l-1.95-3.91h-4.89l4.34,7-4.62,6.95h4.85l1.99-3.8c.23-.44.41-.84.55-1.23h.05c.22.54.41.97.57,1.27l1.98,3.76h4.86l-4.49-7.19,4.52-6.76Z"/></g></svg>